<svg width="136" height="76" viewBox="0 0 100 100" fill="none" xmlns="http://www.w3.org/2000/svg">
<circle cx="50" cy="50" r="40" fill="#ffffff" stroke="#1c1c1c" stroke-width="5"/>
<path transform="translate(23, 30) scale(0.4)" fill-rule="evenodd" clip-rule="evenodd" d="M13.0671 1.39124C15.0102 -0.463748 18.1606 -0.463748 20.1037 1.39124L36.3806 16.9301C45.8266 12.1852 56.5848 9.5 68 9.5C79.4152 9.5 90.1734 12.1852 99.6194 16.9301L115.896 1.39124C117.839 -0.463748 120.99 -0.463748 122.933 1.39124C124.876 3.24623 124.876 6.25377 122.933 8.10876L108.273 22.1042C125.089 33.9225 136 52.9531 136 74.4167C136 74.946 135.993 75.4738 135.98 76H0.0198301C0.00663506 75.4738 0 74.946 0 74.4167C0 52.9531 10.9113 33.9225 27.7273 22.1042L13.0671 8.10876C11.124 6.25377 11.124 3.24623 13.0671 1.39124ZM41.4634 53.8333C45.1274 53.8333 48.0976 50.9978 48.0976 47.5C48.0976 44.0022 45.1274 41.1667 41.4634 41.1667C37.7995 41.1667 34.8293 44.0022 34.8293 47.5C34.8293 50.9978 37.7995 53.8333 41.4634 53.8333ZM101.171 47.5C101.171 50.9978 98.2005 53.8333 94.5366 53.8333C90.8726 53.8333 87.9024 50.9978 87.9024 47.5C87.9024 44.0022 90.8726 41.1667 94.5366 41.1667C98.2005 41.1667 101.171 44.0022 101.171 47.5Z" fill="#1c1c1c"/>
</svg>