<svg xmlns="http://www.w3.org/2000/svg" viewBox="0 0 100 100">
  <circle cx="50" cy="50" r="40" fill="#ffffff" stroke="#1c1c1c" stroke-width="5"/>
  <path d="M20.8566 4.16435C20.5318 4.02419 20.1757 3.97211 19.8244 4.01415C19.473 4.0562 19.1393 4.19037 18.8569 4.4046L9.29848 11.973H1.99967C1.46936 11.973 0.960643 12.1833 0.585705 12.5597C0.210766 12.9341 0 13.4447 0 13.9753V25.9887C0 26.5193 0.210766 27.0298 0.585705 27.4042C0.960643 27.7807 1.46936 27.9909 1.99967 27.9909H9.29848L18.7569 35.5593C19.1087 35.8417 19.5456 35.9978 19.9967 35.9998C20.2955 36.0038 20.5906 35.9357 20.8566 35.7996C21.1969 35.6374 21.4845 35.3811 21.6861 35.0628C21.8878 34.7444 21.9954 34.376 21.9964 33.9976V5.96634C21.9954 5.58992 21.8878 5.21952 21.6861 4.90116C21.4845 4.58281 21.1969 4.32653 20.8566 4.16435ZM35.3142 8.64933C34.9377 8.27291 34.427 8.06069 33.8945 8.06069C33.3619 8.06069 32.8512 8.27291 32.4747 8.64933C32.0982 9.02575 31.8866 9.53833 31.8866 10.0709C31.8866 10.6035 32.0982 11.1161 32.4747 11.4925C33.6523 12.6698 34.5724 14.0794 35.1765 15.6311C35.7808 17.1848 36.0559 18.8447 35.9843 20.5106C35.9129 22.1744 35.4964 23.8062 34.7613 25.2999C34.0264 26.7956 32.9888 28.1211 31.7148 29.1923C31.4055 29.4565 31.1841 29.8109 31.0805 30.2054C30.9769 30.5978 30.9959 31.0143 31.1351 31.3987C31.2741 31.7811 31.5268 32.1135 31.859 32.3477C32.1913 32.584 32.5875 32.7122 32.9946 32.7162C33.4619 32.7162 33.9147 32.554 34.2744 32.2557C35.9759 30.8281 37.3625 29.0621 38.3455 27.0699C39.3286 25.0776 39.8867 22.9012 39.9845 20.6828C40.0823 18.4623 39.7175 16.2458 38.9134 14.1735C38.1096 12.1012 36.8838 10.2211 35.3142 8.64933ZM29.6552 14.3156C29.4688 14.1294 29.2474 13.9813 29.0037 13.8792C28.7601 13.779 28.4992 13.727 28.2354 13.727C27.9716 13.727 27.7107 13.779 27.4671 13.8792C27.2234 13.9813 27.002 14.1294 26.8156 14.3156C26.6293 14.5019 26.4813 14.7241 26.3803 14.9684C26.2795 15.2127 26.2275 15.473 26.2275 15.7372C26.2275 16.0015 26.2795 16.2618 26.3803 16.5061C26.4813 16.7504 26.6293 16.9726 26.8156 17.1588C27.5667 17.9056 27.991 18.9208 27.9954 19.982C27.9958 20.5646 27.8691 21.1413 27.6239 21.6718C27.3785 22.2004 27.0208 22.669 26.5757 23.0454C26.3731 23.2136 26.2057 23.4198 26.0831 23.6521C25.9604 23.8863 25.8848 24.1406 25.8608 24.4029C25.8366 24.6652 25.8644 24.9295 25.9424 25.1818C26.0205 25.432 26.1473 25.6663 26.3157 25.8685C26.4851 26.0708 26.6922 26.235 26.9256 26.3571C27.159 26.4772 27.4139 26.5513 27.6757 26.5733C27.9376 26.5954 28.2012 26.5673 28.4518 26.4872C28.7021 26.4071 28.9345 26.279 29.1352 26.1088C30.0293 25.358 30.7486 24.4209 31.2425 23.3617C31.7366 22.3046 31.9932 21.1513 31.9948 19.982C31.9836 17.8596 31.1437 15.8253 29.6552 14.3156Z" fill="#1c1c1c" transform="translate(30, 30)"/>
</svg>
